<?xml version="1.0" encoding="utf-8"?>
<!-- Generator: Adobe Illustrator 18.0.0, SVG Export Plug-In . SVG Version: 6.00 Build 0)  -->
<!DOCTYPE svg PUBLIC "-//W3C//DTD SVG 1.1//EN" "http://www.w3.org/Graphics/SVG/1.1/DTD/svg11.dtd">
<svg version="1.1" id="Layer_1" xmlns="http://www.w3.org/2000/svg" xmlns:xlink="http://www.w3.org/1999/xlink" x="0px" y="0px"
	 viewBox="0 0 394.1 146.1" enable-background="new 0 0 394.1 146.1" xml:space="preserve">
<path fill="#FFFFFF" d="M348.1,54.1h-55.7h-7.1H237v17h10v59h-6.8c-2.8,0-5,0.4-6.4-2.3l-8.6-17.1c-1.7-3.3-4.2-4.3-4.2-4.3v-0.3
	c4-0.8,14.8-8,14.8-24.3c0-17-11.8-27.7-28.3-27.7H166v17h8v59h-22v-59h9v-17h-33.4H112c-6.4,0-9.8,2.1-11.1,7.9l-12.5,53.7
	c-1.1,5.1-1.5,9.4-1.5,9.4h-0.3c0,0-0.4-4.6-1.8-9.8L69.5,54.1H55.3L39,115.3c-1.4,5.2-1.9,9.8-1.9,9.8h-0.3c0,0-0.4-4.1-1.5-9.2
	L22.9,61.9c-1.4-5.8-4.8-7.7-11.2-7.7H0v17h3.4c2.2,0,3.6,0.1,4.1,2.2l18.7,72.8h19.3l14.4-51c1.7-5.8,2.4-11,2.4-11h0.3
	c0,0,0.8,5.3,2.3,11l13.7,51h19.2l18.8-72.8c0.5-2.2,1.8-2.2,4.1-2.2h7h8.4v59h-8v16h47.3H190v-34h10.4c4.7,0,6.6,0.5,8.5,4l11.6,23
	c2.9,5.7,5.8,7,12.6,7H253v-0.7c1,0,1.4,0.7,1.8,0.7h40.9c6,0,8.2-3.2,8.2-9.3v-13.7h-15v5.4c0,1.8-0.7,1.6-2.5,1.6h-20.8
	c-1.8,0-3.6,0.2-3.6-1.6v-22.4h29v-13h-29v-22h21.2c1.8,0,1.8-0.8,1.8,1v5h16v-6h18v65.7c0,6.1,3.2,9.3,9.3,9.3h19.8
	c27.8,0,46-17.7,46-46.1C394.1,71.5,376,54.1,348.1,54.1 M205.2,98.1H190v-27h15.5c8.1,0,13.1,4.5,13.1,13.4
	C218.6,93.5,213.6,98.1,205.2,98.1 M347.2,130.1h-8.1c-1.8,0-3.1,0.2-3.1-1.6V71.1h11.2c17.8,0,29.6,9.3,29.6,29.4
	C376.8,120.9,365.3,130.1,347.2,130.1"/>
<path fill="#FFFFFF" d="M13.4,13.5H8.2v18.9c0,0.9-0.7,1.5-1.5,1.5H6c-0.9,0-1.5-0.7-1.5-1.5V13.5H1.6c-0.9,0-1.5-0.6-1.5-1.4v-0.6
	c0-0.9,0.7-1.4,1.5-1.4h2.9V1.5C4.5,0.7,5.2,0,6,0h0.7c0.8,0,1.5,0.7,1.5,1.5v8.6h5.2c0.9,0,1.5,0.5,1.5,1.4v0.6
	C14.9,12.9,14.3,13.5,13.4,13.5"/>
<path fill="#FFFFFF" d="M40.3,33.9h-0.7c-0.9,0-1.5-0.7-1.5-1.5V16.1c0-1.5-1.3-2.6-2.6-2.6h-1.7c-1.5,0-2.7,1.2-2.7,2.6v16.3
	c0,0.9-0.7,1.5-1.5,1.5h-0.7c-0.9,0-1.5-0.7-1.5-1.5V16.1c0-1.5-1.2-2.7-2.6-2.7h-1.7c-1.6,0-2.7,1.2-2.7,2.6v16.3
	c0,0.9-0.7,1.5-1.5,1.5h-0.7c-0.9,0-1.5-0.7-1.5-1.5v-21c0-0.7,0.4-1.3,1.4-1.3h0.7c0.5,0,0.8,0.5,1,0.7l0.5,0.9
	c0.2,0.3,0.5,0.6,0.8,0.6c1,0,2-2.4,4.6-2.4h0.7c1.4,0,2.4,0.7,3.1,1.2c0.7,0.5,1.2,1.1,1.9,1.1c1.6,0,2.4-2.4,5-2.4H37
	c3.1,0,4.8,2.5,4.8,5.5v16.9C41.8,33.2,41.1,33.9,40.3,33.9"/>
<path fill="#FFFFFF" d="M69.2,11.9l-3.5,19.6c-0.2,1.3-1.1,2.4-2.3,2.4h-0.9c-1.1,0-2-1.2-2.3-2.2l-2.2-6.9
	c-0.4-1.2-1.2-3.9-1.2-3.9h-0.1c0,0-0.8,2.7-1.2,3.9l-2.2,6.9c-0.3,1-1.2,2.2-2.3,2.2h-0.9c-1.2,0-2.1-1.1-2.3-2.4l-3.5-19.6l0-0.4
	c0-0.8,0.5-1.3,1.3-1.4l0.7-0.1c0.9-0.1,1.5,0.4,1.6,1.2l2.4,13.9c0.5,2.7,0.6,5.7,0.6,5.7h0c0,0,0.3-1.8,1.1-4.4l2.4-7.5
	c0.2-0.8,0.8-1.5,1.8-1.5h1.4c1,0,1.6,0.7,1.8,1.5l2.4,7.5c0.8,2.6,1.1,4.4,1.1,4.4h0.1c0,0,0.1-3,0.6-5.7l2.4-13.9
	c0.1-0.8,0.8-1.3,1.6-1.2l0.7,0.1c0.8,0.1,1.3,0.7,1.3,1.4L69.2,11.9z"/>
<path fill="#FFFFFF" d="M94.8,34.7H71.5c-0.5,0-0.9-0.4-0.9-0.9v-0.7c0-0.5,0.4-0.9,0.9-0.9h23.3c0.5,0,0.9,0.4,0.9,0.9v0.8
	C95.7,34.3,95.3,34.7,94.8,34.7"/>
<path fill="#FFFFFF" d="M101.9,33.9h-0.7c-0.8,0-1.4-0.6-1.4-1.4V3.2c0-0.8,0.6-1.4,1.4-1.4h0.7c0.8,0,1.4,0.6,1.4,1.4v29.3
	C103.4,33.3,102.7,33.9,101.9,33.9"/>
<path fill="#FFFFFF" d="M119.2,25.9c0-1.7-1.3-3-3-3h-2c-1.7,0-3,1.3-3,3v1.8c0,1.7,1.3,3,3,3h2c1.7,0,3-1.3,3-3V25.9z M121.6,33.9
	h-0.7c-0.5,0-0.9-0.3-1-0.7l-0.4-0.8c-0.1-0.1-0.2-0.5-0.8-0.5c-1.2,0-2.2,2.1-5,2.1H113c-2.9,0-5.3-2.5-5.3-5.4V25
	c0-3.1,2.4-5.4,5.3-5.4h0.7c2.7,0,3.8,2.2,5,2.2c0.4,0,0.6-0.3,0.6-0.8v-3.4c0-1.9-1-3-3.1-3h-5.4c-0.8,0-1.4-0.5-1.4-1.3v-0.5
	c0-0.8,0.6-1.3,1.4-1.3h6.7c2.9,0,5.4,2.4,5.4,5.2v16.2C122.7,33.3,122.3,33.9,121.6,33.9"/>
<path fill="#FFFFFF" d="M139.2,17.5c0-1.7-1.3-3-3-3h-2c-1.7,0-3,1.3-3,3v10.2c0,1.7,1.3,3,3,3h2c1.7,0,3-1.3,3-3V17.5z M137.4,34
	h-0.7c-2.9,0-3.8-2.1-5-2.1c-0.5,0-0.7,0.3-0.8,0.5l-0.4,0.8c-0.2,0.3-0.6,0.7-1,0.7h-0.7c-0.7,0-1.1-0.6-1.1-1.2V3.2
	c0-0.8,0.6-1.4,1.4-1.4h0.7c0.8,0,1.4,0.6,1.4,1.4v9.5c0,0.5,0.1,0.8,0.6,0.8c1.2,0,2.3-2.2,5-2.2h0.7c2.9,0,5.3,2.3,5.3,5.4v12
	C142.7,31.6,140.3,34,137.4,34"/>
<path fill="#FFFFFF" d="M155.5,33.9h-8c-0.8,0-1.4-0.5-1.4-1.3V32c0-0.8,0.6-1.3,1.4-1.3h7.3c1.6,0,2.1-1.7,2.1-2.7v-1.9
	c0-0.9-0.5-2-2.1-2h-4c-2.3,0-4.7-1.8-4.7-4.7v-3.1c0-1.9,1.9-4.9,5.4-4.9h6c0.8,0,1.4,0.5,1.4,1.3v0.5c0,0.8-0.6,1.3-1.4,1.3h-5.2
	c-1.8,0-2.7,1-2.7,2.4v1.8c0,1.1,0.9,2.4,2.6,2.4h3.9c2.3,0,4.3,1.4,4.3,4.3v3.2C160.4,31.9,158.4,33.9,155.5,33.9"/>
</svg>
